<svg id="Layer_1" data-name="Layer 1" xmlns="http://www.w3.org/2000/svg" width="168.1mm" height="81.4mm" viewBox="0 0 476.5 230.6"><g id="Illustration"><g id="orb"><circle cx="231.2" cy="141.6" r="89" style="fill:#2c1c1b"/><circle cx="231.2" cy="141.6" r="82.5" style="fill:#30132e"/><circle cx="231.2" cy="141.6" r="78.1" style="fill:#360f10"/><circle cx="231.2" cy="141.6" r="72.4" style="fill:#41190d"/><circle class="ring" cx="231.2" cy="141.6" r="67.5" style="fill:#56280f"/><circle class="ring" data-name="ring" cx="231.2" cy="141.6" r="62.5" style="fill:#5d4543"/><circle class="ring" data-name="ring" cx="231.2" cy="141.6" r="59.3" style="fill:#562d7d"/><circle class="ring" data-name="ring" cx="231.2" cy="141.6" r="54.9" style="fill:#00568c"/><circle class="ring" data-name="ring" cx="231.2" cy="141.6" r="54.1" style="fill:#2c4f9e"/><circle class="ring" data-name="ring" cx="231.2" cy="141.6" r="50.2" style="fill:#414519"/><circle class="ring" data-name="ring" cx="231.2" cy="141.6" r="47.6" style="fill:#e29f02"/><circle class="ring" data-name="ring" cx="231.2" cy="141.6" r="44.1" style="fill:#00568c"/><circle class="ring" data-name="ring" cx="231.2" cy="141.6" r="41.1" style="fill:#424e1e"/><circle id="ring0" data-name="ring" cx="231.2" cy="141.6" r="38.1" style="fill:#d9da00"/><circle id="ring1" data-name="ring" cx="231.2" cy="141.6" r="36.1" style="fill:#364e9d"/><circle id="ring2" data-name="ring" cx="231.2" cy="141.6" r="33.4" style="fill:#492b49"/><circle id="ring3" data-name="ring" cx="231.2" cy="141.6" r="28.9" style="fill:#271813"/><g id="rim"><path d="M55.1,163.9c-.5,1.2-.2,2.3-.2,3.5s.1.5.1.7a7.7,7.7,0,0,0,.1,3.7c0,.2.1.4.1.6a.8.8,0,0,1-1.1.4,2.2,2.2,0,0,1-.5-.8,23.3,23.3,0,0,1-1.3-5.2c-.3-1.7-.5-3.4-.8-5.1a6.1,6.1,0,0,0-.3-1.1,1.9,1.9,0,0,0-1-1.3,34.9,34.9,0,0,0-4.8-2.3l-6-2a26.3,26.3,0,0,1-3-.8c-1.4-.7-2.9-.5-4.3-1.2l-1-.2-1.6-.4a3.8,3.8,0,0,0-1-.3,4.1,4.1,0,0,1-1.9-.5H26a45.2,45.2,0,0,1-7.4-2.2,23.9,23.9,0,0,1-4.3-2,7,7,0,0,1-2.8-3.1,5,5,0,0,1-.2-3.8,11.9,11.9,0,0,1,3.5-5.6l2.9-2.6a25.7,25.7,0,0,1,6.5-3.6c3-1.2,6.1-2.1,9.1-3.1a33.8,33.8,0,0,0,4.4-1.8,6.9,6.9,0,0,0,2.4-2.4,19.2,19.2,0,0,0,1.6-4.2,16.4,16.4,0,0,1,4.7-8.4,11.9,11.9,0,0,1,2.3-1.6,28.5,28.5,0,0,0,3-1.6,7.7,7.7,0,0,1,2.5-1,56.2,56.2,0,0,0,5.5-1.5l3.1-1.1a4.2,4.2,0,0,1,1.5-.4,15.5,15.5,0,0,0,3.1-.7l8.4-2.6,4.4-1.6c2.1-.9,4.2-1.5,6.3-2.2L91,92.9l7.2-2.5,5.2-1.7a18.4,18.4,0,0,0,4-1.9,49.7,49.7,0,0,0,7.1-4.9,93.3,93.3,0,0,0,7.9-7.5,51,51,0,0,1,7.7-6.2,46.8,46.8,0,0,1,5.9-3l7.4-3.9a36.7,36.7,0,0,0,6.1-4.2,11.4,11.4,0,0,0,3.7-5.4,18.2,18.2,0,0,0,.7-2.5,23.9,23.9,0,0,1,1.4-4.3,12.4,12.4,0,0,1,3.8-5,12.2,12.2,0,0,1,1.7-1.5c1.7-1.1,3.4-2.4,5.2-3.4h.1a37,37,0,0,0,4.2-3.7,3.1,3.1,0,0,0,.7-.9c.1-.5-.2-.9-.7-.8l-1,.2c-1.8.6-3.6,1.4-5.4,2.2a58,58,0,0,1-7.3,2.8,3.8,3.8,0,0,1-2.1-.1,1.1,1.1,0,0,1-.7-1.7,7.6,7.6,0,0,1,1.8-2.2,30.9,30.9,0,0,1,7.4-3.9c3.3-1.4,6.7-2.5,10-4l6.4-3,4.4-2,.9-.4a81,81,0,0,1,8-2.4,37.3,37.3,0,0,1,4.7-.4l6.9-.2,6.8-.4,6.9-.5a107.9,107.9,0,0,0,12.5-1.9c2.8-.5,5.6-1.2,8.4-1.9l6.8-1.7c2.5-.7,5-1.4,7.5-1.9s4.3-1,6.5-1.2l4.1-.5c1.8-.2,3.6-.2,5.5-.3h.4l4.7.7a4.4,4.4,0,0,1,1.5.5,1.3,1.3,0,0,1,.2,1.9,5,5,0,0,1-1.4,1A16.9,16.9,0,0,1,272,9.7a15.4,15.4,0,0,0-3.1,2.1,2.7,2.7,0,0,0-.7.8c-.2.5-.1,1,.4,1.1a19.7,19.7,0,0,0,2.4.3,25.4,25.4,0,0,1,3.9.1h2.6a35.7,35.7,0,0,0,4.7.4,21.5,21.5,0,0,1,3.4.5,5.9,5.9,0,0,0,1.9.1,2.2,2.2,0,0,1,1.1.1l3.6.5a5.5,5.5,0,0,0,2.2.1h1.2L312,18.5a19.4,19.4,0,0,1,3.9,1.2l4.7,1.7a49.2,49.2,0,0,1,6.1,3,53.7,53.7,0,0,0,7.8,3.3l4.2,1.7,4.1,1.3,4.7,1.6,4.7,1.8,2.2,1c1.7.9,3.5,1.6,5.2,2.6l5.4,3c1.3.8,2.6,1.6,3.8,2.5s4.8,3.3,7.2,5a49.9,49.9,0,0,1,5.1,4l4.1,3.8a15,15,0,0,1,2.3,3.3,5,5,0,0,1,.1,3.4,1.9,1.9,0,0,1-.9,1.1,8.9,8.9,0,0,1-3.8,1.8l-5.2.7a3.9,3.9,0,0,0-2,.6c-1.2.6-1.2,2.8-.2,3.6a5.7,5.7,0,0,0,2.7,1.3,4.4,4.4,0,0,0,2.3.2h.7a29.1,29.1,0,0,0,5.1.3,7.6,7.6,0,0,1,1.5.1,5,5,0,0,0,2.1.1,2,2,0,0,1,1.1.2,8.8,8.8,0,0,0,2.7.6,11.4,11.4,0,0,1,2.5.6h.4a46.4,46.4,0,0,1,5.3,1.6,20.2,20.2,0,0,1,3.6,1.8,8.8,8.8,0,0,1,3.8,5.1l.9,2.3a12.5,12.5,0,0,0,4.5,5.4,34.2,34.2,0,0,0,5.9,3.3l6.9,3.2,7.7,3.1,7.2,2.7,7.5,3a113,113,0,0,1,11.2,5.1l3.5,1.6q3.8,1.6,7.2,3.6l6.7,3.9,2.9,1.8a29.8,29.8,0,0,1,2.9,2,24.2,24.2,0,0,1,2.5,3.1,1.3,1.3,0,0,1,.1.6,2.9,2.9,0,0,0,.2.9,7.5,7.5,0,0,1-.9,6.6,17.3,17.3,0,0,1-2.8,2.6,60.6,60.6,0,0,1-5.3,3.5c-1,.5-1.9,1.3-2.9,1.8a20.9,20.9,0,0,0-3.9,2.7,30.8,30.8,0,0,0-4.3,3.8l-2.5,2.4-2.6,2.8-3.3,3.6c-1.4,1.7-2.8,3.4-4.3,5a8.4,8.4,0,0,0-2.3,4.8,8.2,8.2,0,0,1-1,3,22.8,22.8,0,0,1-3.4,5.3,9.4,9.4,0,0,0-1.9,3.2,1.4,1.4,0,0,0-.2.7c-.1,1.1-.7,2.1-.8,3.2a.8.8,0,0,1-.8.6.8.8,0,0,1-.8-.7,2.5,2.5,0,0,1,.1-1.2q.3-3,.9-6a8.9,8.9,0,0,0-.1-2.3c-.3-.1-.4.1-.6.2a16.7,16.7,0,0,0-1.6,1.2,13.7,13.7,0,0,1-2.3,1.9,66.1,66.1,0,0,1-5.5,3.7,77.4,77.4,0,0,1-7,3.7,20.4,20.4,0,0,1-3.7,1.5l-6.9,2.3-4.1,1-6,1.2c-3.2.5-6.4.8-9.6,1h-4.9a9.5,9.5,0,0,0-2.3.5c-1.4.6-2.9,1-4.3,1.7l-.4.2a59,59,0,0,0-6,4.2,11.4,11.4,0,0,0-1.1,1.1l-2.1,2.2a3.5,3.5,0,0,1-1.3.8.6.6,0,0,1-.8-.2.9.9,0,0,1,.1-.7v-.2l1.6-2.1a52.3,52.3,0,0,0,4-5.6c.4-.7.9-1.3,1.3-1.9a.2.2,0,0,0-.1-.4l-.8-.2L368.1,189h-.5a19.9,19.9,0,0,1-4.9-.5H344.6a36.1,36.1,0,0,0-4.9,2.1,9.1,9.1,0,0,0-3.3,2.2,10.1,10.1,0,0,1-1.6,1.3l-2.7,1.9a21.8,21.8,0,0,0-2.8,2.5,5.8,5.8,0,0,1-1.2,1h-.5a.4.4,0,0,1-.4-.4l.3-.5,6.5-7.3a16.2,16.2,0,0,1,1.8-1.9,4.3,4.3,0,0,0,.4-.7c.1-.1-.1-.3-.1-.3h-.6a71.4,71.4,0,0,0-10.3,1.7,4.3,4.3,0,0,0-1.2.5,31.5,31.5,0,0,0-2.9,2.2,12,12,0,0,0-2.4,2.6l-3,4.6a6.7,6.7,0,0,1-1.5,1.4l-.5.2c-.3.1-.8-.4-.6-.7a1.1,1.1,0,0,1,.3-.7l2-3.4c.7-1.2,1.5-2.3,2.2-3.4l.6-1.1c.1-.1,0-.2,0-.3H318l-1.1.4a26.5,26.5,0,0,1-4.4,1.7c-3.2,1.2-6.5,2.1-9.6,3.5l-7.7,3.4-6.5,3.1a82.2,82.2,0,0,1-13.2,5.2,52.6,52.6,0,0,1-8.8,1.7,39.9,39.9,0,0,1-5.9.4,30.1,30.1,0,0,1-5.2,0c-1.6.3-3.1-.4-4.7-.2a6.9,6.9,0,0,1-2-.3c-1.6-.1-3.1-.6-4.7-.4l-1.3-.2-33.2-5-3-.2a15.4,15.4,0,0,1-3-.4,6.7,6.7,0,0,0-2-.1H201a11.6,11.6,0,0,0-3.7-.3c-1.8-.4-3.7-.1-5.5-.5h-1a9.1,9.1,0,0,1-3.6-.6l-1.4-.3-8-1.2c-1.3-.2-2.6-.1-3.8-.2h-.3v.3c1.2,1.3,2.3,2.6,3.5,3.8l4.1,3.8c.3.3.6.5.5,1a.4.4,0,0,1-.6.4l-.6-.2-2.7-1.5a43.5,43.5,0,0,0-6.5-3.2,29.6,29.6,0,0,1-3.1-1.5l-2.8-1.6-.4-.2a12,12,0,0,0-3.8-.4c-4.9.4-9.8,1-14.7,1.6-3.1.3-6.3.7-9.4,1.3h-.5c-1.5.4-1.7.7-.6,1.7a20.5,20.5,0,0,1,2.8,4.2,14.3,14.3,0,0,1,1.2,2.1.8.8,0,0,1,0,.9.5.5,0,0,1-.9.3,38.1,38.1,0,0,1-3.2-2.4c-1.1-1-2.1-2.1-3.1-3.2a13.5,13.5,0,0,0-2.7-2,2.2,2.2,0,0,0-1.4-.1c-3.1.6-6.3.7-9.4,1s-4.3.2-6.4.2h-3a38.5,38.5,0,0,1-6.8-1l-2.1-.5-1.3-.4c-.1,0-.3.1-.2.3a1.4,1.4,0,0,0,.2.6,20.5,20.5,0,0,1,1.8,4.9,13.9,13.9,0,0,0,.6,1.3,1.9,1.9,0,0,1,.2.8.7.7,0,0,1-1.2.5,6.9,6.9,0,0,1-1.6-1.8,28.2,28.2,0,0,1-2.5-4.9,4.1,4.1,0,0,0-2.1-2.6,17.1,17.1,0,0,0-3.3-1.7,93,93,0,0,1-8.4-4.1,14,14,0,0,1-3.4-2.6,27.3,27.3,0,0,1-2.5-2.3l-3.9-4.3a60.7,60.7,0,0,1-4.3-5.7c-1.1-1.6-2.3-3.2-3.3-4.9s-1.4-2-2-3.1a75.1,75.1,0,0,0-4.7-6.8l-2-3.1A13.9,13.9,0,0,0,55.1,163.9Zm301.6-8.2c.3.2.6.4.9.3a27.9,27.9,0,0,1,3.9-1,37.6,37.6,0,0,0,6-1.5l.7-.2,6.9-2,3.8-1.2a47.5,47.5,0,0,1,8.4-1.4l3.1-.2a21,21,0,0,1,5.6.1,3.6,3.6,0,0,0,2.3-.3,1.1,1.1,0,0,0,1.6.1l1.7-1.5a9.5,9.5,0,0,1,2.4-2.1,4.2,4.2,0,0,1,4-.6,2,2,0,0,0,1.3.1,5.6,5.6,0,0,1,1.3,0,14.2,14.2,0,0,0,4.1.1l2.2-.3a20.3,20.3,0,0,0,4.9-1,44.4,44.4,0,0,0,7.2-2.7,29.7,29.7,0,0,0,7.4-4.1l2.5-1.8a14,14,0,0,1,2.4-1.5,53.6,53.6,0,0,0,5.4-2.6,12.8,12.8,0,0,0,2.5-1.5,2.5,2.5,0,0,0,1-1.8,8.9,8.9,0,0,0,.1-2.3,4.7,4.7,0,0,1-.1-1.7c.3-1.1,0-2.3.2-3.4a1.7,1.7,0,0,0-1.6-2,1.7,1.7,0,0,0-1.2.5l-1.5,1.9a49.7,49.7,0,0,1-3.2,4.4l-3.3,3.4a11.1,11.1,0,0,1-2.7,2,28.6,28.6,0,0,1-4.7,2.2c-2.5.9-5,1.6-7.5,2.3l-3.9,1.2-.8.4-3.8,2.6a6.8,6.8,0,0,1-5.2,1.1l-3-.4a15.7,15.7,0,0,1-2.9-.8,4.2,4.2,0,0,1-3.4-3.1l-.3-1.1a3.3,3.3,0,0,0-.6-1c-.3-.5-.7-.3-1-.2a1.6,1.6,0,0,0-1.5.4l-4.2,3.4a14.2,14.2,0,0,1-5.8,2.5l-3,.4a47.7,47.7,0,0,0-6.5,1.7,16.1,16.1,0,0,0-5.2,2.7l-2.2,1.6a15.5,15.5,0,0,1-3.5,2.1,14,14,0,0,1-6.7,1.2,8.5,8.5,0,0,0-3.2.4,3.4,3.4,0,0,0-2,.3,4.5,4.5,0,0,1-2.8.5,10.8,10.8,0,0,0-4.7.7,3,3,0,0,0-1.3.9,19,19,0,0,0-1.9,2.1,2.4,2.4,0,0,1-2.8,1,5.9,5.9,0,0,0-3.9-.3,3.2,3.2,0,0,1-3.2-1c-.1-.2-.3-.3-.5-.5a2.1,2.1,0,0,1-.6-1.7c0-.4-.1-.8-.1-1.1a7,7,0,0,0-.5-2.5c-.4-.9-.8-1.1-1.7-.9l-.8.3c-1.2-.2-1.2-.2-1.7.8s-.3.5-.3.8a3,3,0,0,1-.6,1.4,36.1,36.1,0,0,1-2.5,3,3.8,3.8,0,0,1-1.2,1,48.1,48.1,0,0,1-5.3,2,11.1,11.1,0,0,0-4.8,2.2,24.3,24.3,0,0,0-3,2.6,7.8,7.8,0,0,1-3,1.8,26.5,26.5,0,0,1-10.7,1.8,40.3,40.3,0,0,0-6,.4c-4.1.7-8.2,1.6-12.3,2.5a46.8,46.8,0,0,0-5.3,1.7l-3.3,1.1a10.4,10.4,0,0,1-5.8-.2c-1.5-.4-3-1.1-4.4-1.6l-3.8-1.3-3.1-.8a31.5,31.5,0,0,1-6.5-2.9c-1.6-.9-3.1-1.8-4.7-2.5a12.7,12.7,0,0,0-5.3-1.7l-2-.3a5.5,5.5,0,0,0-1.8-.2,20.1,20.1,0,0,0-6.9,1.3,44.6,44.6,0,0,0-6.3,2.8,35.3,35.3,0,0,1-7.9,2.8,59.9,59.9,0,0,1-8.5,1.1,38.5,38.5,0,0,0-6.7.9l-4,.8a8.6,8.6,0,0,1-3.2,0,24.7,24.7,0,0,1-6.5-1.6,29.4,29.4,0,0,1-5.1-2.3,41.9,41.9,0,0,1-4.2-2.4,9.8,9.8,0,0,0-6.2-1.4l-4.3.4a1.1,1.1,0,0,1-1.3-.5,5.7,5.7,0,0,1-.8-1.3,4.7,4.7,0,0,0-2.1-2.1,3.8,3.8,0,0,1-1.4-1.4,7.1,7.1,0,0,1-.8-1.8,6.1,6.1,0,0,0-2-2.9,1.7,1.7,0,0,0-2.4-.5c-.3,0-.5,0-.6.3a2.1,2.1,0,0,0-.1,1.1c0,1,.1,2,.2,3a4.4,4.4,0,0,1-2.5,4.5.9.9,0,0,1-.7.1l-1.8-.3-3.2-1.4a9.7,9.7,0,0,0-4.5-1.2,32.5,32.5,0,0,0-4.4.3l-3,.3a1.7,1.7,0,0,1-1.8-.8l-.6-.8a2.2,2.2,0,0,0-2.1-1.3c-.4-.6-.5-.7-.8-.5a15.1,15.1,0,0,0-2.8,2.2c-.6.6-.7.6-1.3.4a38.2,38.2,0,0,1-4.6-2.1l-2.1-1.5a.4.4,0,0,0-.6-.1.6.6,0,0,0,0,.6,4.5,4.5,0,0,0,1,1.3,23.3,23.3,0,0,0,2.6,1.7l2.8,1.2c.5.2.6.6.3,1.1a6.6,6.6,0,0,1-2.2,1.5,1.8,1.8,0,0,1-1,.2,17.6,17.6,0,0,1-5-1.3,21.1,21.1,0,0,0-4.9-1.4l-1.4-.2a3.8,3.8,0,0,0-1.5-.1,5.5,5.5,0,0,1-1.8-.1l-3.2-.5a25,25,0,0,1-4.5-1.2,6.5,6.5,0,0,1-2.2-1.1,31.7,31.7,0,0,1-3.6-2.8,1.3,1.3,0,0,0-1.8,0,2.6,2.6,0,0,0-1,1.1,2,2,0,0,1-1.3,1.1,6.3,6.3,0,0,1-3.6-.2l-2.1-.5-1.1-.2a50,50,0,0,1-5.8-2.3c-2-1-4-2-6-2.8s-6.3-2.8-9.5-4-5-1.8-7.5-2.9a1.5,1.5,0,0,0-2.1,1.3,1.5,1.5,0,0,0,.6,1.1,33.1,33.1,0,0,0,5,4.1,57.1,57.1,0,0,0,6.4,3.5q4.2,1.8,8.4,3.3a56.2,56.2,0,0,1,10.5,5,12.3,12.3,0,0,0,5.3,2.1l.9.4,3.1,1.7a2.6,2.6,0,0,0,3.2-.5,4.6,4.6,0,0,1,.7-.7,1,1,0,0,1,.9-.4,12.7,12.7,0,0,0,2.8-.3,10.3,10.3,0,0,1,6.7,1.1l1.1.7,3.2,2.2a4.7,4.7,0,0,0,3.6,1l1.3-.3a3.1,3.1,0,0,1,2.3.4,24,24,0,0,1,2.6,1.8,2.7,2.7,0,0,0,2.1.5,2.2,2.2,0,0,1,2,.7,9.5,9.5,0,0,1,2,2.8,1.3,1.3,0,0,0,1.3.7,1.8,1.8,0,0,0,1.8-1.7,2.5,2.5,0,0,0,.8-1.2,3.7,3.7,0,0,1,.8-1.8,1.6,1.6,0,0,1,1.4-.7h2.2a28.2,28.2,0,0,0,5.8-1,7.1,7.1,0,0,1,2.9-.5,7.9,7.9,0,0,1,4.3,1.4,5,5,0,0,0,1.9,1,9.4,9.4,0,0,0,5-.2l.7-.3c1-.2,1.4,0,1.8,1a5.3,5.3,0,0,0,.8,1.7c.5.6,1,.7,1.5.1a1.1,1.1,0,0,0,.3-.8,2.6,2.6,0,0,0,2.1-.3,15.7,15.7,0,0,1,2.3-.9,1.1,1.1,0,0,1,1.3.3l.6.6a13.6,13.6,0,0,0,5.6,3.8,57.9,57.9,0,0,0,7.4,2.3l2.9.8,2.3.7,7.8,3.1a22,22,0,0,0,4.4,1.2l.3.3,1.1.3a19.1,19.1,0,0,0,3.4,1,17.2,17.2,0,0,0,3.2.2,11.9,11.9,0,0,0,5.2-1.4l3.5-1.9a22.7,22.7,0,0,1,3.4-1.9l6.9-2.9,4.3-1.6,7.5-2.8a7.5,7.5,0,0,1,3.3-.4,10.8,10.8,0,0,1,5.3,1.5l3.4,1.8a38.1,38.1,0,0,0,5.2,2.9l2.7,1.3c1.6.8,3.3,1.6,5.1,2.3a25.4,25.4,0,0,0,6,1.6,17,17,0,0,0,4.5,0,35.6,35.6,0,0,0,7.2-2.3l4.6-1.8c3.4-1.4,7-1.8,10.6-2.4l4.7-.4a11.2,11.2,0,0,0,5.8-2.2,7,7,0,0,1,2.7-1.4,9.7,9.7,0,0,0,2.3-1.1c2.1-1.1,4.1-2.3,6.2-3.3a18.3,18.3,0,0,0,3.2-1.4,77.5,77.5,0,0,1,7.9-3.3c1.1-.4,1.4-.6,1.6.9a8.2,8.2,0,0,0,1,2.6,2.7,2.7,0,0,0,.8.7,1.1,1.1,0,0,0,1.5-.2,2.1,2.1,0,0,0,.7-1.1c.4.3.1.8.2,1.1s.3.4.6.4.3,0,.5-.2.3-.4.3-.6a5,5,0,0,1,.8-1.4,16.6,16.6,0,0,1,3.5-3.5,4.3,4.3,0,0,1,2.6-.9,30,30,0,0,1,4.3.3l3,.5a2.7,2.7,0,0,0,2.7-.9l1.5-1.7a5.4,5.4,0,0,1,3.5-1.8,7.7,7.7,0,0,0,2.6-.7A2.9,2.9,0,0,1,356.7,155.7ZM389.1,98a25.7,25.7,0,0,1-5.5-1.2l-4.9-1.6a24.7,24.7,0,0,1-4.6-2.3,25.2,25.2,0,0,1-3-2.7,9.2,9.2,0,0,1-1.8-3,42.3,42.3,0,0,1-1.7-5.8l-1.5-6c-.4-1.4-.7-2.8-1.1-4.2a65.9,65.9,0,0,0-2.7-8.6,10.5,10.5,0,0,0-2.1-3.7,30.6,30.6,0,0,0-8.1-6.2,37.8,37.8,0,0,1-4.3-2.6,13,13,0,0,1-3.1-3.1,19.9,19.9,0,0,0-2.2-2.7L339.7,42a25.3,25.3,0,0,0-6-3.8,52.4,52.4,0,0,0-6.5-2.7,30.1,30.1,0,0,0-4.3-1.1l-2.6-.4a6.1,6.1,0,0,0-1.4-.1,12.3,12.3,0,0,1-2.7-.2l-5.7-.9a26.2,26.2,0,0,1-4-1.1l-4-1.2L297.9,29a58.2,58.2,0,0,0-6.8-2h-.6a7.8,7.8,0,0,0-2.5-.7l-5.4-.8c-1.5-.2-3.1,0-4.6-.3s-.2,0-.3,0a4.5,4.5,0,0,1-1.6-.1l-7.2-1.1-1.1-.2a4.2,4.2,0,0,0-1.5-.4l-3.5-.9-3.4-1.1-2.6-.7-6.7-2.3a12.1,12.1,0,0,0-3.8-.6,39.3,39.3,0,0,0-7.5,1.3l-5.5,1.5a33.8,33.8,0,0,0-4.2,1.3l-7,2.5-7.2,2.4a57.4,57.4,0,0,1-9.1,2.2c-3.2.6-6.3,1.1-9.5,1.5s-4.2.5-6.3.9a20.7,20.7,0,0,0-6.7,2.4,4.6,4.6,0,0,0-1.8,1.6.7.7,0,0,0,.2,1.1,12.5,12.5,0,0,0,1.2.8l1.8,1.2a3.2,3.2,0,0,1,.9,3.6,7.1,7.1,0,0,1-2.1,2.7,38.2,38.2,0,0,1-4.7,3.1,33.5,33.5,0,0,0-5.2,3,73.4,73.4,0,0,0-10.3,8.3,78.5,78.5,0,0,0-6.7,7.4c-1.9,2.6-3.8,5.1-5.8,7.5s-6.5,7.6-9.9,11.2L137.8,88a43.6,43.6,0,0,1-6.7,4.5,40.5,40.5,0,0,1-8.4,3.2c-1.9.5-3.9,1-5.8,1.7a14,14,0,0,0-5.1,3.1,16.3,16.3,0,0,0-3.3,4.5,55.4,55.4,0,0,1-3.3,5.1,11.4,11.4,0,0,1-3.2,3L98.6,115l-1.9,1.2c-.5.2-.4.6,0,.8l1.7.8a22.5,22.5,0,0,1,4.5,1.9,17.5,17.5,0,0,0,6.6,2.4l1.1.3a12.1,12.1,0,0,0,3.8.6,22.6,22.6,0,0,1,4.5.2l2.5.3a1.6,1.6,0,0,0,1,.1,5,5,0,0,1,1.7.1h1a4.5,4.5,0,0,1,1.6.1,27.3,27.3,0,0,0,6.4.1,1.4,1.4,0,0,0,1-.5c.6-.7,1.3-1.3,1.8-2l1.9-2.3.5-.5a.9.9,0,0,1,1.1-.1.8.8,0,0,1,.4,1,5.6,5.6,0,0,1-.9,2.1l-1,1.4c-.1.2.1.4.3.4h.4a24.8,24.8,0,0,1,2.7-.3l5.2-.2c.4,0,.8-.2,1.3,0a1.7,1.7,0,0,0,1.9-.8,5.8,5.8,0,0,1,2.5-1.9,2,2,0,0,0,.8-.8c1.1-1.2,2-2.6,3-3.9l1.8-2.9c.7-1.3,1.5-2.5,2.3-3.7s.4-.4.7-.3a.7.7,0,0,1,.3.8,1.9,1.9,0,0,1-.2.8,20,20,0,0,1-1,2.1c-.6,1.3-1.3,2.6-1.9,3.8a11.8,11.8,0,0,0-1,3,17.6,17.6,0,0,1-.7,4c-.2.2.1.4.3.5a18.1,18.1,0,0,0,2.3.3,5.3,5.3,0,0,1,2.5.4c2.2.6,4.3,1.5,6.5,2.3l6.9,2.6a11.7,11.7,0,0,0,2.5.7c2.6.3,5.2,1.1,7.8.9a21.7,21.7,0,0,0,3.6-.2,73.2,73.2,0,0,0,8-2.3l7.3-2.9c2.3-.8,4.6-1.7,6.9-2.4a50.5,50.5,0,0,1,6.4-1.7l3.3-.6,2.7-.3a40.7,40.7,0,0,1,5-.3h3.8l2.7.2c1,.2,1.9-.1,2.8.1a15.8,15.8,0,0,1,3.6.9h.8a41.4,41.4,0,0,1,6.3,1.5l1.2.5a49.3,49.3,0,0,1,5.4,1.9l6.4,2.2a11.7,11.7,0,0,0,2,.6c1.2.2,2.3.6,3.5.9l2.9.7a9.7,9.7,0,0,1,1.8.3,5.5,5.5,0,0,0,1.7.5l3,.4a13.8,13.8,0,0,0,2,.3,21.5,21.5,0,0,1,4.3.4,6.1,6.1,0,0,0,1.4.1h1.4a17,17,0,0,0,3.9.2,22.9,22.9,0,0,0,3.7.1,7.4,7.4,0,0,0,2.1,0h12.8c2.1,0,4.2-.1,6.3.1h.5a4.2,4.2,0,0,1,1.6.1,21.7,21.7,0,0,0,3.6.1,19.3,19.3,0,0,0,2.4.1,12.2,12.2,0,0,1,3.3.1h4.7c.5,0,.7-.2.6-.7l-.6-2.7a38.7,38.7,0,0,0-1.3-5.9v-.3q-.1-.3.3-.6c.2-.1.6-.1.7.2a5.4,5.4,0,0,1,.7,1.3c.1.2.2.5.5.6a4,4,0,0,1,1.3,1.3c.6.8.9,1.7,1.4,2.5a13.1,13.1,0,0,0,1.7,2.8,3.4,3.4,0,0,0,3.1,1.2,67.4,67.4,0,0,0,9-1.4,24.6,24.6,0,0,0,3.8-1.4,22.3,22.3,0,0,0,3.3-2,15.3,15.3,0,0,1,3.9-1.8,13.1,13.1,0,0,0,2.7-1.2l2-1,4.8-1.9a13.2,13.2,0,0,0,3.3-1.8,12,12,0,0,1,3.9-2,31.8,31.8,0,0,0,3.3-.9,13.1,13.1,0,0,1,3.2-1,15.2,15.2,0,0,1,2.1-.3,24.8,24.8,0,0,1,2.7-.3,8.6,8.6,0,0,1,2.8.3c1.5.3,3,.5,4.5.9a38.8,38.8,0,0,0,5.8.9.6.6,0,0,0,.8-.6,28.1,28.1,0,0,1-.1-2.9,29.5,29.5,0,0,0-1.1-6.5,1.4,1.4,0,0,1-.1-.9c0-.3.4-.5.6-.3a1.3,1.3,0,0,1,.7.9c.2.8.5,1.5.7,2.3a13.1,13.1,0,0,0,2.4,4.5,3.5,3.5,0,0,0,1.7,1.2,27.2,27.2,0,0,1,2.5,1.1l2.4,1.3.8.5a3.6,3.6,0,0,0,2.4.9l1.8.3c.5,0,1,.3,1.5.1s-.7-.6-1.1-.9a3.8,3.8,0,0,0-1.3-.9c-1.4-.8-2.6-1.8-3.9-2.7a5.2,5.2,0,0,1-1.8-1.8,8.5,8.5,0,0,1-1.2-3.8,13.6,13.6,0,0,0-.2-2,6.2,6.2,0,0,0-.9-2.7,9.2,9.2,0,0,0-3.2-3.3,18.7,18.7,0,0,0-5.2-2.3,5,5,0,0,0-2.4-.3,31.7,31.7,0,0,1-4.4-.2Z" transform="translate(-11 -4.2)" style="fill:#fff8c9;opacity:0.6900000000000001"/><path d="M194.2,182a22,22,0,0,1-4.4-1.2l-7.8-3.1-2.3-.7-2.9-.8a57.9,57.9,0,0,1-7.4-2.3,13.6,13.6,0,0,1-5.6-3.8l-.6-.6a1.1,1.1,0,0,0-1.3-.3,15.7,15.7,0,0,0-2.3.9,2.6,2.6,0,0,1-2.1.3,1.4,1.4,0,0,1-.9-.8,18.2,18.2,0,0,1-1.7-5.6c-.2-2.2-.2-4.5-.6-6.7a7.4,7.4,0,0,1-.1-2.1,3.2,3.2,0,0,0-.7-3.1,1.3,1.3,0,0,1-.3-1.3,1.7,1.7,0,0,1,2.4.5,6.1,6.1,0,0,1,2,2.9,7.1,7.1,0,0,0,.8,1.8,3.8,3.8,0,0,0,1.4,1.4,4.7,4.7,0,0,1,2.1,2.1,5.7,5.7,0,0,0,.8,1.3,1.1,1.1,0,0,0,1.3.5l4.3-.4a9.8,9.8,0,0,1,6.2,1.4,41.9,41.9,0,0,0,4.2,2.4,29.4,29.4,0,0,0,5.1,2.3,24.7,24.7,0,0,0,6.5,1.6,8.6,8.6,0,0,0,3.2,0l4-.8a38.5,38.5,0,0,1,6.7-.9,59.9,59.9,0,0,0,8.5-1.1,35.3,35.3,0,0,0,7.9-2.8,44.6,44.6,0,0,1,6.3-2.8,20.1,20.1,0,0,1,6.9-1.3,5.5,5.5,0,0,1,1.8.2l2,.3a12.7,12.7,0,0,1,5.3,1.7c1.6.7,3.1,1.6,4.7,2.5a31.5,31.5,0,0,0,6.5,2.9l3.1.8,3.8,1.3c1.4.5,2.9,1.2,4.4,1.6a10.4,10.4,0,0,0,5.8.2l3.3-1.1a46.8,46.8,0,0,1,5.3-1.7c4.1-.9,8.2-1.8,12.3-2.5a40.3,40.3,0,0,1,6-.4,26.5,26.5,0,0,0,10.7-1.8,7.8,7.8,0,0,0,3-1.8,24.3,24.3,0,0,1,3-2.6,11.1,11.1,0,0,1,4.8-2.2,48.1,48.1,0,0,0,5.3-2,3.8,3.8,0,0,0,1.2-1,36.1,36.1,0,0,0,2.5-3,3,3,0,0,0,.6-1.4c0-.3.2-.5.3-.8s.5-1,1.7-.8-.3,2.2-.3,3.4a8.1,8.1,0,0,1-.1,3.1v.4a4.4,4.4,0,0,1-.1,2c0,.4-.2.8-.1,1.1a5.9,5.9,0,0,1-.1,2.3l-.6,3.7a6,6,0,0,1-.6,2.3,2.1,2.1,0,0,1-.7,1.1,1.1,1.1,0,0,1-1.5.2,2.7,2.7,0,0,1-.8-.7,8.2,8.2,0,0,1-1-2.6c-.2-1.5-.5-1.3-1.6-.9a77.5,77.5,0,0,0-7.9,3.3,18.3,18.3,0,0,1-3.2,1.4c-2.1,1-4.1,2.2-6.2,3.3a9.7,9.7,0,0,1-2.3,1.1,7,7,0,0,0-2.7,1.4,11.2,11.2,0,0,1-5.8,2.2l-4.7.4c-3.6.6-7.2,1-10.6,2.4l-4.6,1.8a35.6,35.6,0,0,1-7.2,2.3,17,17,0,0,1-4.5,0,25.4,25.4,0,0,1-6-1.6c-1.8-.7-3.5-1.5-5.1-2.3l-2.7-1.3a38.1,38.1,0,0,1-5.2-2.9l-3.4-1.8a10.8,10.8,0,0,0-5.3-1.5,7.5,7.5,0,0,0-3.3.4l-7.5,2.8-4.3,1.6-6.9,2.9a22.7,22.7,0,0,0-3.4,1.9l-3.5,1.9a11.9,11.9,0,0,1-5.2,1.4,17.2,17.2,0,0,1-3.2-.2,19.1,19.1,0,0,1-3.4-1l-1.1-.3Z" transform="translate(-11 -4.2)" style="fill:#dbd9ae"/><path d="M127.3,171.7a1.8,1.8,0,0,1-1.8,1.7,1.3,1.3,0,0,1-1.3-.7,9.5,9.5,0,0,0-2-2.8,2.2,2.2,0,0,0-2-.7,2.7,2.7,0,0,1-2.1-.5,24,24,0,0,0-2.6-1.8,3.1,3.1,0,0,0-2.3-.4l-1.3.3a4.7,4.7,0,0,1-3.6-1l-3.2-2.2-1.1-.7a10.3,10.3,0,0,0-6.7-1.1,12.7,12.7,0,0,1-2.8.3,1,1,0,0,0-.9.4,4.6,4.6,0,0,0-.7.7,2.6,2.6,0,0,1-3.2.5L86.6,162l-.9-.4a12.3,12.3,0,0,1-5.3-2.1,56.2,56.2,0,0,0-10.5-5q-4.2-1.5-8.4-3.3a57.1,57.1,0,0,1-6.4-3.5,33.1,33.1,0,0,1-5-4.1,1.5,1.5,0,0,1-.6-1.1,1.5,1.5,0,0,1,2.1-1.3c2.5,1.1,5,1.9,7.5,2.9s6.4,2.6,9.5,4,4,1.8,6,2.8a50,50,0,0,0,5.8,2.3l1.1.2,2.1.5a6.3,6.3,0,0,0,3.6.2,2,2,0,0,0,1.3-1.1,2.6,2.6,0,0,1,1-1.1,1.3,1.3,0,0,1,1.8,0,31.7,31.7,0,0,0,3.6,2.8,6.5,6.5,0,0,0,2.2,1.1,25,25,0,0,0,4.5,1.2l3.2.5a5.5,5.5,0,0,0,1.8.1,3.8,3.8,0,0,1,1.5.1l1.4.2a21.1,21.1,0,0,1,4.9,1.4,17.6,17.6,0,0,0,5,1.3,1.8,1.8,0,0,0,1-.2,6.6,6.6,0,0,0,2.2-1.5c.3-.5.2-.9-.3-1.1l-2.8-1.2a23.3,23.3,0,0,1-2.6-1.7,4.5,4.5,0,0,1-1-1.3.6.6,0,0,1,0-.6.4.4,0,0,1,.6.1l2.1,1.5a38.2,38.2,0,0,0,4.6,2.1c.6.2.7.2,1.3-.4a15.1,15.1,0,0,1,2.8-2.2c.3-.2.4-.1.8.5s.1,1.5-.1,2.3a30.2,30.2,0,0,0-.2,4.3c-.1.8-.1,1.8-.2,2.7v.4a2.2,2.2,0,0,1,0,1.4c0,.4-.1.7-.1,1a6,6,0,0,1-.1,2.3l-.3,1.9A1.3,1.3,0,0,0,127.3,171.7Z" transform="translate(-11 -4.2)" style="fill:#f6f4c3"/><path d="M399.8,133.1c.3-.1.7-.3,1,.2a3.3,3.3,0,0,1,.6,1l.3,1.1a4.2,4.2,0,0,0,3.4,3.1,15.7,15.7,0,0,0,2.9.8l3,.4a6.8,6.8,0,0,0,5.2-1.1L420,136l.8-.4,3.9-1.2c2.5-.7,5-1.4,7.5-2.3a28.6,28.6,0,0,0,4.7-2.2,11.1,11.1,0,0,0,2.7-2l3.3-3.4a49.7,49.7,0,0,0,3.2-4.4l1.5-1.9a1.7,1.7,0,0,1,1.2-.5,1.7,1.7,0,0,1,1.6,2c-.2,1.1.1,2.3-.2,3.4a4.7,4.7,0,0,0,.1,1.7,8.9,8.9,0,0,1-.1,2.3,2.5,2.5,0,0,1-1,1.8,12.8,12.8,0,0,1-2.5,1.5,53.6,53.6,0,0,1-5.4,2.6,14,14,0,0,0-2.4,1.5l-2.5,1.8a29.7,29.7,0,0,1-7.4,4.1,44.4,44.4,0,0,1-7.2,2.7,20.3,20.3,0,0,1-4.9,1l-2.2.3a14.2,14.2,0,0,1-4.1-.1,5.6,5.6,0,0,0-1.3,0,2,2,0,0,1-1.3-.1,4.2,4.2,0,0,0-4,.6,9.5,9.5,0,0,0-2.4,2.1l-1.7,1.5a1.1,1.1,0,0,1-1.6-.1c.3-1.9,1.1-3.7,1.2-5.6,0-.2.2-.4.3-.6a5.1,5.1,0,0,0,.3-1.7c-.2-1.4-.3-2.9-.5-4.3l-.3-1.5C399.3,134,399.8,133.6,399.8,133.1Zm48.3-11.7a.4.4,0,0,0-.5.2l-1.2,1.6c-.8.8-.8.9.4,1.2s.6.4,1,.6a.3.3,0,0,0,.4-.2v-.6C448.2,123.3,448.1,122.3,448.1,121.4Z" transform="translate(-11 -4.2)" style="fill:#f6f4c3"/><path d="M399.8,133.1c0,.5-.5.9-.5,1.5l.3,1.5c.2,1.4.3,2.9.5,4.3a5.1,5.1,0,0,1-.3,1.7c-.1.2-.3.4-.3.6-.1,1.9-.9,3.7-1.2,5.6a3.6,3.6,0,0,1-2.3.3,21,21,0,0,0-5.6-.1l-3.1.2a47.5,47.5,0,0,0-8.4,1.4l-3.8,1.2-6.9,2-.7.2a37.6,37.6,0,0,1-6,1.5,27.9,27.9,0,0,0-3.9,1c-.3.1-.6-.1-.9-.3s.4-2.2.5-3.3.1-.7.2-.9a6.6,6.6,0,0,0,.6-2,8.5,8.5,0,0,1,3.2-.4,14,14,0,0,0,6.7-1.2,15.5,15.5,0,0,0,3.5-2.1l2.2-1.6a16.1,16.1,0,0,1,5.2-2.7,47.7,47.7,0,0,1,6.5-1.7l3-.4a14.2,14.2,0,0,0,5.8-2.5l4.2-3.4A1.6,1.6,0,0,1,399.8,133.1Z" transform="translate(-11 -4.2)" style="fill:#e1e0b3"/><path d="M127.3,171.7a1.3,1.3,0,0,1-.2-.8l.3-1.9a6,6,0,0,0,.1-2.3c0-.3.1-.6.1-1a2.2,2.2,0,0,0,0-1.4v-.4c.1-.9.1-1.9.2-2.7a30.2,30.2,0,0,1,.2-4.3c.2-.8-.1-1.6.1-2.3a2.2,2.2,0,0,1,2.1,1.3l.6.8a1.7,1.7,0,0,0,1.8.8l3-.3a32.5,32.5,0,0,1,4.4-.3,9.7,9.7,0,0,1,4.5,1.2l3.2,1.4,1.8.3a.9.9,0,0,0,.7-.1,4.4,4.4,0,0,0,2.5-4.5c-.1-1-.2-2-.2-3a2.1,2.1,0,0,1,.1-1.1c.1-.3.3-.3.6-.3a1.3,1.3,0,0,0,.3,1.3,3.2,3.2,0,0,1,.7,3.1,7.4,7.4,0,0,0,.1,2.1c.4,2.2.4,4.5.6,6.7a18.2,18.2,0,0,0,1.7,5.6,1.4,1.4,0,0,0,.9.8,1.1,1.1,0,0,1-.3.8c-.5.6-1,.5-1.5-.1a5.3,5.3,0,0,1-.8-1.7c-.4-1-.8-1.2-1.8-1l-.7.3a9.4,9.4,0,0,1-5,.2,5,5,0,0,1-1.9-1,7.9,7.9,0,0,0-4.3-1.4,7.1,7.1,0,0,0-2.9.5,28.2,28.2,0,0,1-5.8,1h-2.2a1.6,1.6,0,0,0-1.4.7,3.7,3.7,0,0,0-.8,1.8A2.5,2.5,0,0,1,127.3,171.7Z" transform="translate(-11 -4.2)" style="fill:#eeecc0"/><path d="M358,149.5a6.6,6.6,0,0,1-.6,2c-.1.2-.1.6-.2.9s-.3,2.2-.5,3.3a2.9,2.9,0,0,0-1.3.5,7.7,7.7,0,0,1-2.6.7,5.4,5.4,0,0,0-3.5,1.8l-1.5,1.7a2.7,2.7,0,0,1-2.7.9l-3-.5a30,30,0,0,0-4.3-.3,4.3,4.3,0,0,0-2.6.9,16.6,16.6,0,0,0-3.5,3.5,5,5,0,0,0-.8,1.4c0,.2-.2.4-.3.6s-.3.3-.5.2-.4-.2-.6-.4.2-.8-.2-1.1a6,6,0,0,0,.6-2.3l.6-3.7a5.9,5.9,0,0,0,.1-2.3c-.1-.3.1-.7.1-1.1a4.4,4.4,0,0,0,.1-2v-.4a8.1,8.1,0,0,0,.1-3.1c0-1.2.2-2.3.3-3.4l.8-.3c.9-.2,1.3,0,1.7.9a7,7,0,0,1,.5,2.5c0,.3.1.7.1,1.1a2.1,2.1,0,0,0,.6,1.7c.2.2.4.3.5.5a3.2,3.2,0,0,0,3.2,1,5.9,5.9,0,0,1,3.9.3,2.4,2.4,0,0,0,2.8-1,19,19,0,0,1,1.9-2.1,3,3,0,0,1,1.3-.9,10.8,10.8,0,0,1,4.7-.7,4.5,4.5,0,0,0,2.8-.5A3.4,3.4,0,0,1,358,149.5Z" transform="translate(-11 -4.2)" style="fill:#eeecc0"/><path d="M194.2,182l.3.3Z" transform="translate(-11 -4.2)" style="fill:#eeecc0"/><path d="M448.1,121.4c0,.9.1,1.9.1,2.8v.6a.3.3,0,0,1-.4.2c-.4-.2-.6-.5-1-.6s-1.2-.4-.4-1.2l1.2-1.6A.4.4,0,0,1,448.1,121.4Z" transform="translate(-11 -4.2)" style="fill:#fefadc"/></g></g></g></svg>