<svg xmlns="http://www.w3.org/2000/svg" viewBox="0 0 547.71 282.19">
  <defs/>
  <g fill="#f9e08e">
    <path d="M106.65 102.43c-11.15 4-22 9.19-34.1 9.74.46-2.1 3.11-4.09.6-6.32a2.81 2.81 0 00-4.19.39c-1.89 2.34-.93 4.32 1.21 6-6.89 3.63-14.6 4-22 4.56-5.72.46-11 2.19-16.58 3.11-4 .65-7.43 2.93-10.39 5.87-7.42 7.34-5.68 15.31 4.5 17.93 16.71 4.29 33 9.69 48.46 17.34 6.07 3 11.94 6.38 17.9 9.59-3.84-.29-6.79 1.21-9.88 3.57-6.07 4.65-7.16 4.29-9.48-3.46-1.16-3.9-2.44-7.31-6.75-7.14-6.7.26-11.65-1.64-15-7.77-.77-1.4-3.39-2.25-5.27-2.49-9.23-1.21-17.33-7.21-27.56-5-6.92 1.52-11.13-4.53-7.71-10.59 2.92-5.15 4.36-11.1 9.11-15.47 4.4-4.06 7.95-9 13.69-11.5a3.07 3.07 0 001.61-4.09c-.82-1.6-2.56-1.79-4.2-1.29a36.55 36.55 0 00-14.52 8.13c-12.68 11.54-15.06 20.44-8 35.7a15.56 15.56 0 011 7.08c-19.37-17.86-4.21-45 11.75-52.19 8.82-4 18-7.26 28.09-6.65 3.23.2 6.53-.32 9.72.1 23.62 3.12 45.6-4.67 67.77-10.46 10.23-2.67 16.48-11.28 22-19.9 2.63-4.07 5-8.35 7.73-12.32 4.29-6.11 9.77-10.66 17.26-12.54 6.66-1.68 13.17-4 19.88-5.46 17.07-3.66 31.66-11.91 44.65-23.28 9.14-8 20-12.11 31.86-13.24 12.54-1.2 25 .51 37.44 2.48 4.86.77 9.19 3.27 13.21 5.93 7.76 5.15 15.67 10.2 22.76 16.13 11.86 9.9 26 14.61 40.31 18.88 23.21 6.9 41.57 19.28 51.09 42.57 2.43 6 5.66 11.59 8.43 17.39 9.49 19.85 26.27 28.82 46.65 32.87 8.71 1.73 17.48 3.13 26.18 4.9 15.26 3.09 30.32 18.9 31.61 33 1.38 15-4.57 24.49-18.63 30.29-11.68 4.82-24.2 6.38-36.33 9.32A67.42 67.42 0 00461 231.21a82.3 82.3 0 01-23.16 15c-17.92 2.88-36.24 1-54.13 4.41a27.9 27.9 0 01-7.25.16 4.4 4.4 0 01-2.92-1.61c-1.2-1.72.17-3.12 1.38-4.1 8.36-6.78 16.52-13.84 25.27-20.09 9.46-6.75 21.09-7.71 32-10.34 21.12-5.06 42.54-9.33 61.75-20.06a92.41 92.41 0 0023.72-18.47c3.27-3.6 2.89-6.11.14-9.38a29.75 29.75 0 00-11.89-8.19c-19-7.78-38-15.49-57.1-22.91a152.13 152.13 0 01-56.59-38.31c-14.63-15.66-27.84-32.71-44.14-46.71-12.51-10.76-25.31-21.4-41.7-26.11-1.07-1.93-2.87-2.37-4.87-2.41-3.39-2-6.58-4.63-10.23-5.89-10.32-3.57-21-6.56-31.6-1.51-12.66 5.98-26.24 9.82-37.46 18.74a224.19 224.19 0 01-27.08 18c-6.44 3.73-12 9.74-20.28 9.66-.7-2.06 1.79-6.19-3.28-5.42-2.63.41-5.63.76-7.63 2.25-2.38 1.78-.91 4.07 1.22 5.61a8 8 0 01-6 4.82c-2.73.52-3.67 2.4-3.87 4.89-4.55.69-9.11 2.53-8.2 7.68.63 3.57 5.37 1.52 8.26 2.07-4 4.12-11.28 1.8-14.62 7.31l-2.47 2.4q-1.2 0-2.4.06c-2 0-3.83.43-4.9 2.37l-24.32 7.3a12.07 12.07 0 00-1-3.26c-1-1.45-2.79-2-3.94-.74-1.54 1.67.28 2.67 1.58 3.28a14.39 14.39 0 003.36.72z"/>
    <path d="M9.11 156.34a15.56 15.56 0 00-1-7.08c-7-15.26-4.66-24.16 8-35.7a36.55 36.55 0 0114.49-8.13c1.64-.5 3.38-.31 4.2 1.29a3.07 3.07 0 01-1.58 4.09c-5.74 2.53-9.29 7.44-13.69 11.5-4.75 4.37-6.19 10.32-9.11 15.47-3.42 6.06.79 12.11 7.71 10.59 10.23-2.25 18.33 3.75 27.56 5 1.88.24 4.5 1.09 5.27 2.49 3.36 6.13 8.31 8 15 7.77 4.31-.17 5.59 3.24 6.75 7.14 2.32 7.75 3.41 8.11 9.48 3.46 3.09-2.36 6-3.86 9.88-3.57 5.48 6.06 12.7 9.95 20 12.37 23.48 7.73 46.13 17.78 69.92 24.6 3.82 1.09 7.36 3.18 10.95 5 2.3 1.15 4.41 2.07 6.31-.54l4.87 4.91c35.1 45.17 104.2 53.73 148.63 9.78l4.57-4.83c.4 2.19 1.07 3.61 3.93 3 4.71-1 9.56-1.2 14.21-2.83a5.61 5.61 0 016.6 1.83c2 2.83-.74 4.43-2.33 6-3.17 3.09-6.57 6-9.92 8.86-2.14 1.84-5.64 3.17-6.34 5.4-2.76 8.95-11 9.64-17.62 12.47-13.22 5.65-26.65 10.79-40 16.08a75.8 75.8 0 01-51 2.17c-3.94-1.19-7.75-2.22-11.85-1.94-13.35-6.56-26.62-13.29-40.08-19.63-15.57-7.32-32.7-8.58-49.3-11.68-10.53-2-20-6-29.4-10.74-22.37-11.37-42.57-26.27-63.93-39.29-12.06-7.35-24.56-14-36.51-21.48-5.65-3.63-11.66-7.25-14.67-13.83zm155 77.75c0-2.77.21-3.61 0-4.29a17.17 17.17 0 00-2.08-4.36q-22.2-29.61-58.38-37.45c-2-.41-4.49-.59-5.27 1.6-1 3 1.44 4.19 3.78 5.1.75.29 1.57.38 2.34.63 17.89 5.76 33.81 14.45 45.74 29.57 3.11 4.06 7.98 6.35 13.82 9.2z"/>
  </g>
  <path fill="#f8e08f" d="M182.41 151.12V135.7c-12.14 2.2-22.72-.53-32.78-4.19-7-2.54-14.43-1.18-21.22-4.63-12.06-6.12-12.56-10.29-2.42-18.81 4.52-3.79 9.69-5.65 14.71-8.11 12.4-5.77 25-11.11 37.1-17.47 5.85-3.08 12.94-2.64 17.95-6.31 9.68-7.07 20.44-12.55 29.74-20 9.63-7.75 21.21-12.66 28.73-23.58s22.7-12.47 34.42-6c2.47 1.36 4.94 2.82 7.9 2.85l2.45 2.41c17.51 4.72 31.46 15.13 45.23 26.57 14.78 12.21 26.37 27 39 41.16 13.89 15.6 29.39 30 49.81 37.58 4 1.48 11.05 3.43 10 8.63-1 5-7.66 2.43-11.88 2.92-10.7 1.26-18.17-5.65-26.45-10.51-2-1.18-3.49-3.79-6.27-2.86a3.46 3.46 0 00-1.53 2.86c.27 3.25 2.5 4.66 5.52 5.53 7.16 2.07 7.17 2.13 12.22 7.63-7.27 3.21-15 2.87-22.26 4.49-3.18.72-5.17-1.38-5.55-4.87-.34-3.16.75-6.49-1.21-9.76-3.31 5.55 1.11 12.3-3.18 17.39l-1-.42c2.68-28.26-8.45-51.87-27.08-71.51-24.97-26.26-55.97-35.46-91.88-28.26-37.5 7.48-71.9 39.69-77.75 80.32-.86 4.09 1.28 8.77-2.32 12.37z"/>
  <path fill="#c19c78" d="M221.1 182.54c38.83 3.32 77.67 6.08 116.69 4.93 2.72-.08 5.76-.59 7.37 2.65-2.84 1.16-3.8 4-5.54 6.14-14.49 18.1-33.81 28.31-56.59 27.46-24.1-.91-45.32-10.31-59.13-31.91a77.62 77.62 0 00-5.22-6.55l.25-2.42a8 8 0 002.17-.3z"/>
  <path fill="#fbebb6" d="M437.86 246.15c-11.09 7.13-24 5.57-36.14 7-11.2 1.34-22.59-.43-33.88 1.19-13.77 2-26.44 7.06-38.59 13.35a130.5 130.5 0 01-47.2 14c-13.42 1.34-27.32-.27-39.05-8.86 4.1-.28 7.91.75 11.85 1.94a75.8 75.8 0 0051-2.17c13.37-5.29 26.8-10.43 40-16.08 6.63-2.83 14.86-3.52 17.62-12.47.7-2.23 4.2-3.56 6.34-5.4 3.35-2.9 6.75-5.77 9.92-8.86 1.59-1.55 4.3-3.15 2.33-6a5.61 5.61 0 00-6.6-1.83c-4.65 1.63-9.5 1.83-14.21 2.83-2.86.61-3.53-.81-3.92-3 6.9-8.49 13.11-17.41 17.35-27.56 3.25-7.78 2.46-8.15-6.19-9.22s-15.72 2.67-23.34 5c-1.61-3.24-4.65-2.73-7.37-2.65-39 1.15-77.86-1.61-116.69-4.93-.89-1.15-1.64-1.2-2.17.3l-.25 2.42c-9.79-6.82-21-6.05-32.59-7.47 1.3 11.6 6.2 20.44 10.68 29.44l2.23 2.4.26 2.4c-1.9 2.61-4 1.69-6.31.54-3.59-1.8-7.13-3.89-10.95-5-23.79-6.82-46.44-16.87-69.92-24.6-7.33-2.42-14.55-6.31-20-12.37-6-3.21-11.83-6.59-17.9-9.59-15.47-7.65-31.75-13-48.46-17.34-10.18-2.62-11.92-10.59-4.5-17.93 3-2.94 6.41-5.22 10.39-5.87 5.54-.92 10.86-2.65 16.58-3.11 7.41-.59 15.12-.93 22-4.56h2.38c12.13-.55 23-5.71 34.1-9.74l24.33-7.33c2 0 3.82-.43 4.9-2.37q1.2 0 2.4-.06l2.47-2.4c3 .54 5.7 1.32 2.34 4.78a7.9 7.9 0 00-2.39 4.88c-5 2.47-10.19 4.33-14.71 8.12-10.14 8.52-9.64 12.69 2.42 18.81 6.79 3.45 14.24 2.09 21.22 4.63 10.06 3.66 20.64 6.39 32.78 4.19v22.81c-.08 3.33-1.26 6.88 1.84 9.62.44 1.08.69 3 1.36 3.12 9.27 2.35 18.44 7.14 28.18 1.72v.08l2.2 2.34c1.95 2.68 4.94 2.15 7.67 2.59 11.55 1.85 23.28 1.69 34.82 3 28.15 3.28 56.31 1.35 84.46 1.58 3.41 0 6.51-.36 7.5-4.41l2-2.7c.1-.7.17-1.41.2-2.12 2.7 3 3.33 7.27 9.51 7.31 17.77.13 18.79-.3 19.71-18.51.06-1.2.27-2.39.42-3.59 4.28-5.09-.14-11.84 3.17-17.39 2 3.27.87 6.6 1.21 9.76.38 3.49 2.37 5.59 5.55 4.87 7.25-1.62 15-1.28 22.26-4.49-5.05-5.5-5.06-5.56-12.22-7.63-3-.87-5.25-2.28-5.52-5.53a3.46 3.46 0 011.53-2.86c2.78-.93 4.27 1.68 6.27 2.86 8.28 4.86 15.75 11.77 26.45 10.51 4.22-.49 10.87 2 11.88-2.92 1.07-5.2-6-7.15-10-8.63-20.42-7.61-35.92-22-49.81-37.58-12.47-13.98-24.06-28.82-38.84-40.98-13.77-11.39-27.72-21.8-45.21-26.55l-2.45-2.45c-2.43-6.6-2.36-6.7 4.89-7.35 1 2 2.86 2.39 4.87 2.41 16.39 4.71 29.19 15.35 41.7 26.11 16.3 14 29.51 31.05 44.14 46.71a152.13 152.13 0 0056.69 38.25 3205.03 3205.03 0 0157.1 22.91 29.75 29.75 0 0111.89 8.19c2.75 3.27 3.13 5.78-.14 9.38a92.41 92.41 0 01-23.72 18.47c-19.21 10.73-40.63 15-61.75 20.06-10.95 2.63-22.58 3.59-32 10.34-8.75 6.25-16.91 13.31-25.27 20.09-1.21 1-2.58 2.38-1.38 4.1a4.4 4.4 0 002.92 1.61 27.9 27.9 0 007.25-.16c17.87-3.4 36.19-1.52 54.11-4.4z"/>
  <path fill="#fce6a9" d="M296.55 29.43c-3 0-5.43-1.49-7.9-2.85-11.72-6.44-26.91-4.85-34.42 6s-19.11 15.85-28.74 23.6c-9.3 7.45-20.06 12.93-29.74 20-5 3.67-12.1 3.23-17.95 6.31-12.08 6.36-24.7 11.7-37.1 17.47a7.9 7.9 0 012.39-4.89c3.36-3.46.62-4.24-2.34-4.78 3.34-5.51 10.59-3.19 14.62-7.31 7.67-.66 14.51-2.78 19.32-10.81-7.33-1.39-13.13 5.63-19.38 1.06.2-2.49 1.14-4.37 3.87-4.89a8 8 0 006-4.82c3.34-.37 7.14 1.07 9.69-2.44 8.31.08 13.84-5.93 20.28-9.66a224.19 224.19 0 0027.07-17.99c11.25-8.94 24.83-12.78 37.42-18.78 10.58-5 21.28-2.06 31.6 1.51 3.65 1.26 6.84 3.89 10.23 5.89-7.25.67-7.35.77-4.92 7.38z"/>
  <path fill="#f9e08e" d="M70.22 112.22c-2.14-1.64-3.1-3.62-1.21-6a2.81 2.81 0 014.19-.39c2.51 2.23-.14 4.22-.6 6.32-.85.07-1.64.08-2.38.07z"/>
  <path fill="#f8e08f" d="M182.44 158.51c3 2.74 1.89 6.29 1.84 9.62-3.06-2.7-1.92-6.29-1.84-9.62z"/>
  <path fill="#fce6a9" d="M301.47 22.09c2 0 3.8.48 4.87 2.41-2.01-.02-3.83-.43-4.87-2.41zM130.98 95.12c1.07-1.94 2.88-2.37 4.9-2.37-1.08 1.94-2.9 2.35-4.9 2.37zM138.28 92.69l2.47-2.4z"/>
  <path fill="#f9e08e" d="M196.77 207.23l2.23 2.4z"/>
  <path fill="#fce6a9" d="M299.01 31.83l-2.45-2.4z"/>
  <path fill="#e9b883" d="M221.1 182.54a8 8 0 01-2.17.3c.53-1.5 1.29-1.41 2.17-.3z"/>
  <path fill="#e8ba84" d="M350.51 178.18a3 3 0 012-2.7z"/>
  <path fill="#e8b57f" d="M213.86 173.05l2.2 2.34z"/>
  <path fill="#f9e08e" d="M155.31 73.23c6.25 4.57 12-2.45 19.38-1.06-4.81 8-11.65 10.15-19.32 10.81-2.89-.55-7.63 1.5-8.26-2.07-.89-5.15 3.65-6.99 8.2-7.68zM174.83 61.08c-2.55 3.51-6.35 2.07-9.69 2.44-2.13-1.54-3.6-3.83-1.22-5.61 2-1.49 5-1.84 7.63-2.25 5.07-.77 2.58 3.36 3.28 5.42zM106.65 102.43a14.39 14.39 0 01-3.39-.72c-1.3-.61-3.12-1.61-1.58-3.28 1.15-1.25 3-.71 3.94.74a12.07 12.07 0 011 3.26z"/>
  <path fill="#fee9af" d="M164.06 234.09c-5.85-2.85-10.71-5.14-13.91-9.2-11.93-15.12-27.85-23.81-45.74-29.57-.77-.25-1.59-.34-2.34-.63-2.34-.91-4.83-2.14-3.78-5.1.78-2.19 3.32-2 5.27-1.6q36.18 7.78 58.38 37.45a17.17 17.17 0 012.08 4.36c.25.68.04 1.52.04 4.29z"/>
  <path fill="#c19d77" d="M257.72 153.53a440.5 440.5 0 0048.61 5.21c-13.61 17.32-36.11 15.58-48.61-5.21z"/>
  <path fill="#3c3a31" d="M263.85 153.43s-5.69-.41-10.75-1.21a28.2 28.2 0 01-7.73-.87l-33.6-5.62c-1.58-5.77 2-10.85 2.19-16.38 1.82-1.26 2.3-3.09 2.2-5.16a15.61 15.61 0 01.56-2.24l1.75-2.73c1.81-5.18 6.77-8.69 7.64-14.37l-.09.13c3.7-1.2 5.61-4.54 8.32-6.92 35.88-31.53 88.72-22.46 112.08 17.17 7.9 13.42 9.61 28.2 9 43.42l-.35.19q-16.67-.1-33.33-.22c-4.36 0-12.06 3-16 .45"/>
  <path fill="#3c3a31" d="M245.37 151.37l7.37-.27c-4.37 0-2.46.09-7.37.27zM255.22 151.04l2.42 2.41c-6.99 4.2-2.12-1.1-2.42-2.41z"/>
  <path fill="#e9b883" d="M218.68 185.26a77.62 77.62 0 015.22 6.55c13.81 21.6 35 31 59.13 31.91 22.78.85 42.1-9.36 56.59-27.46 1.74-2.18 2.7-5 5.54-6.14 7.62-2.34 14.74-6.08 23.34-5s9.44 1.44 6.19 9.22c-4.24 10.14-10.47 19.09-17.35 27.55l-4.59 4.83c-10.42-4.88-21.19-2.36-31.83-1.27a279.44 279.44 0 01-55.69.53 338.71 338.71 0 01-55.76-10.17c-2.11-.57-3.89-.85-5.34 1.13l-4.91-4.91-.26-2.4-2.23-2.4c-4.48-9-9.38-17.84-10.68-29.44 11.59 1.42 22.84.64 32.63 7.47z"/>
  <path fill="#e8b57f" d="M211.77 145.74c-2.18 9.29 2.93 18 2 27.23-9.74 5.42-18.91.63-28.18-1.72-.67-.17-.92-2-1.36-3.12.05-3.33 1.19-6.88-1.84-9.62v-7.39c3.6-3.6 1.46-8.28 2.32-12.39 5.51 3.85 12.33 2.67 18.35 4.73 2.94 1 5.1-.62 6-4.1s.07-8.26 4.9-10c-.18 5.54-3.74 10.62-2.19 16.38z"/>
  <path fill="#e8ba84" d="M352.75 173.36c.25-4.92 3.07-9.43 2.35-14.52l.35-.19 4.52-.27c6.46 3.87 12.93 3.74 19.41 0l2-.27 1 .42c-.14 1.2-.35 2.39-.41 3.59-.92 18.21-1.94 18.64-19.71 18.51-6.18 0-6.81-4.29-9.51-7.27z"/>
  <path fill="#de8b36" d="M204.13 216.94c1.45-2 3.23-1.7 5.34-1.13a338.71 338.71 0 0055.75 10.17 279.44 279.44 0 0055.7-.55c10.64-1.09 21.41-3.61 31.83 1.27-44.42 43.97-113.53 35.41-148.62-9.76z"/>
  <path fill="#dd8c33" d="M381.36 158.15l-2 .27h-19.41a71.81 71.81 0 00-13.64-50.56c-28.88-39.53-78.34-41.69-111.38-15.18-3.91 3.14-8.87 6.15-8.93 12.36l.09-.13c-5.1 3.43-10.17 6.87-7.64 14.36l-1.75 2.74c-1.42.44-2.75.91-.56 2.24.1 2.07-.38 3.9-2.2 5.16-4.83 1.73-4 6.4-4.9 10s-3 5.11-6 4.1c-6-2.06-12.84-.88-18.35-4.73 5.85-40.64 40.25-72.85 77.75-80.33 35.91-7.17 66.91 2 91.8 28.24 18.67 19.59 29.8 43.2 27.12 71.46z"/>
  <path fill="#e7ae5f" d="M355.45 158.65c.58-15.22-1.13-30-9-43.42-23.39-39.63-76.23-48.7-112.11-17.15-2.71 2.38-4.62 5.72-8.32 6.92.06-6.21 5-9.22 8.93-12.36 33-26.51 82.5-24.35 111.38 15.18a71.81 71.81 0 0113.64 50.61z"/>
  <path fill="#e7ae5f" d="M359.94 158.43h19.41c-6.48 3.69-12.95 3.82-19.41 0z"/>
  <path fill="#e8b57f" d="M226.11 104.87c-.87 5.68-5.83 9.19-7.64 14.37-2.53-7.5 2.54-10.94 7.64-14.37zM216.72 121.97a15.61 15.61 0 00-.56 2.24c-2.19-1.33-.86-1.78.56-2.24z"/>
  <path fill="#c19d77" d="M257.65 153.43l.07.08c12.45 20.79 28.62 4.89 48.61 5.21"/>
  <path fill="#c19d77" d="M321.77 158.62q16.67.09 33.33.22c.72 5.09-2.1 9.6-2.35 14.52 0 .71-.1 1.42-.2 2.12a3 3 0 00-2 2.7c-1 4.05-4.09 4.44-7.5 4.41-28.15-.23-56.31 1.7-84.46-1.58-11.54-1.34-23.27-1.18-34.82-3-2.73-.44-5.72.09-7.67-2.59l-2.2-2.34V173c.88-9.19-4.23-17.94-2-27.22l33.6 5.62c4.43.52 2.32.81 7.73.87a3.27 3.27 0 001.33.18c1.41 0 .62.26 1.49.25"/>
</svg>
